Coordinates
version=1
nRows=15
nColumns=42
inDegrees=yes

Units are S.I. units (second, meters, Newtons, ...)
If the header above contains a line with 'inDegrees', this indicates whether rotational values are in degrees (yes) or radians (no).

endheader
time	pelvis_tilt	pelvis_list	pelvis_rotation	pelvis_tx	pelvis_ty	pelvis_tz	hip_flexion_r	hip_adduction_r	hip_rotation_r	knee_angle_r	knee_adduction_r	knee_angle_r_beta	ankle_angle_r	subtalar_angle_r	mtp_angle_r	hip_flexion_l	hip_adduction_l	hip_rotation_l	knee_angle_l	knee_adduction_l	knee_angle_l_beta	ankle_angle_l	subtalar_angle_l	mtp_angle_l	lumbar_extension	lumbar_bending	lumbar_rotation	arm_flex_r	arm_add_r	arm_rot_r	elbow_flex_r	pro_sup_r	wrist_flex_r	wrist_dev_r	arm_flex_l	arm_add_l	arm_rot_l	elbow_flex_l	pro_sup_l	wrist_flex_l	wrist_dev_l
      3.50000000	      1.78688642	     -2.97915147	     -1.59916080	     -0.06515420	      0.92297909	     -0.07675278	      4.28872140	     -4.25830069	    -21.79225112	     31.65779728	      3.70755226	      0.55253280	     23.39748405	     12.56105573	     -7.57282015	     25.09461004	     -8.25760262	    -18.58840940	     38.55704880	     -2.93170424	      0.67294745	     11.22179066	     -1.16438591	     -7.57282015	    -18.06830414	      6.10688933	     -3.12822653	     10.12713151	    -13.96127612	      4.92868727	     40.67050303	     90.00000001	      0.00000000	      0.00000000	    -14.02347462	    -10.05833843	     -1.72670973	     57.98484355	     90.00000001	      0.00000000	      0.00000000
      3.51000000	      1.76037717	     -3.05629360	     -1.86944501	     -0.06150702	      0.92314172	     -0.07749164	      4.06749370	     -4.22673232	    -21.69518516	     31.60984815	      3.67933863	      0.55169593	     23.38181427	     12.53384728	     -7.57273349	     24.88256252	     -8.18466462	    -18.38786420	     38.67798106	     -3.07700651	      0.67505812	     11.22730767	     -1.22630867	     -7.57273349	    -17.86712184	      5.92638446	     -3.04897306	     10.00265260	    -13.80997737	      4.94971384	     40.67051695	     90.00000001	      0.00000000	      0.00000000	    -14.17163516	    -10.00899201	     -1.71462351	     57.92170809	     90.00000001	      0.00000000	      0.00000000
      3.52000000	      2.20196014	     -2.94233609	     -2.27729003	     -0.05795265	      0.92456702	     -0.07814152	      3.04390655	     -4.30437158	    -20.60574206	     30.76250489	      4.05227419	      0.53690700	     23.18840772	     12.01282995	     -7.57116789	     23.89393274	     -7.95011976	    -17.97929726	     38.56789157	     -2.77311730	      0.67313669	     11.26541722	     -2.84506019	     -7.57116789	    -18.24833315	      5.47517201	     -2.75206497	      9.87715727	    -13.65576190	      4.69495036	     40.87473898	     90.00000001	      0.00000000	      0.00000000	    -14.08793062	    -10.00504074	     -1.81020754	     57.78846726	     90.00000001	      0.00000000	      0.00000000
      3.53000000	      2.13824198	     -2.87818899	     -2.53766448	     -0.05446336	      0.92478298	     -0.07907817	      2.84246592	     -4.38854243	    -20.48280314	     30.55521937	      3.91949191	      0.53328918	     23.13122590	     11.95375092	     -7.57092848	     23.70489580	     -7.80023317	    -17.85668254	     38.75975241	     -2.76656242	      0.67648530	     11.31647688	     -3.02443312	     -7.57092848	    -18.00301616	      5.16188653	     -2.69953319	      9.75093705	    -13.50117735	      4.71860022	     40.91261710	     90.00000001	      0.00000000	      0.00000000	    -14.18860896	    -10.02183972	     -1.84164232	     57.71101216	     90.00000001	      0.00000000	      0.00000000
      3.54000000	      2.20156858	     -2.79694900	     -2.87674647	     -0.05093346	      0.92542333	     -0.07994294	      2.37328939	     -4.51247433	    -20.07020723	     30.09250527	      4.00529608	      0.52521330	     23.00473127	     11.94884908	     -7.57021368	     23.23215730	     -7.69306942	    -17.87402114	     38.73254473	     -2.64196753	      0.67601043	     11.56211073	     -3.73282406	     -7.57021368	    -17.90749321	      4.80346423	     -2.52843975	      9.60120941	    -13.38770476	      4.68876278	     41.11446789	     90.00000001	      0.00000000	      0.00000000	    -14.23086699	     -9.97859822	     -1.97304728	     57.56125470	     90.00000001	      0.00000000	      0.00000000
      3.55000000	      2.13526399	     -2.72865612	     -3.11693075	     -0.04754040	      0.92577884	     -0.08097516	      2.12355548	     -4.63902497	    -19.99853779	     29.81360953	      3.95607181	      0.52034565	     22.94193847	     11.94460396	     -7.56994814	     22.97422622	     -7.63460235	    -17.93265881	     38.79198617	     -2.50489932	      0.67704788	     11.60606729	     -3.92106315	     -7.56994814	    -17.66706061	      4.50415184	     -2.48783786	      9.49456738	    -13.23221707	      4.71746408	     41.23788931	     90.00000001	      0.00000000	      0.00000000	    -14.32162202	     -9.97084912	     -2.03247394	     57.45310719	     90.00000001	      0.00000000	      0.00000000
      3.56000000	      2.06805720	     -2.64769412	     -3.38265858	     -0.04415211	      0.92623761	     -0.08206283	      1.82570831	     -4.79850646	    -19.90210039	     29.42258580	      3.95698257	      0.51352100	     22.83690457	     12.02061165	     -7.56965020	     22.64800512	     -7.59489571	    -18.14337310	     38.71980495	     -2.35164765	      0.67578808	     11.75543186	     -4.16111885	     -7.56965020	    -17.42686503	      4.20312850	     -2.41365976	      9.36229001	    -13.09440430	      4.74859240	     41.42981573	     90.00000001	      0.00000000	      0.00000000	    -14.39334638	     -9.93857814	     -2.13600442	     57.31561718	     90.00000001	      0.00000000	      0.00000000
      3.57000000	      2.39702930	     -2.55284686	     -3.71555045	     -0.04070550	      0.92763053	     -0.08322953	      0.94637590	     -5.03394629	    -19.58736998	     28.72788873	      4.16811341	      0.50139625	     22.54792819	     12.39204708	     -7.56835338	     21.69204702	     -7.47057463	    -18.64129214	     38.29408873	     -2.32044546	      0.66835793	     11.84822999	     -4.43972342	     -7.56835338	    -17.67136232	      3.87145013	     -2.19055798	      9.17026072	    -13.05065984	      4.82938781	     41.94129304	     90.00000001	      0.00000000	      0.00000000	    -14.27834077	     -9.78866950	     -2.44851896	     57.06420276	     90.00000001	      0.00000000	      0.00000000
      3.58000000	      2.24060462	     -2.48067071	     -3.90915066	     -0.03753213	      0.92796902	     -0.08453865	      0.76396245	     -5.20386272	    -19.67195866	     28.37798464	      4.12908222	      0.49528927	     22.44859450	     12.47994687	     -7.56802507	     21.48690572	     -7.45029501	    -18.93044817	     38.18339625	     -2.15632695	      0.66642598	     11.97324636	     -4.42536300	     -7.56802507	    -17.34804858	      3.63318600	     -2.17964571	      9.07535108	    -12.90548037	      4.90386716	     42.10553796	     90.00000001	      0.00000000	      0.00000000	    -14.34814426	     -9.77078783	     -2.51850796	     56.96791836	     90.00000001	      0.00000000	      0.00000000
      3.59000000	      2.45094339	     -2.35492968	     -4.21958241	     -0.03407863	      0.92916471	     -0.08574278	      0.01014563	     -5.49314980	    -19.65301661	     27.68901821	      4.26804303	      0.48326453	     22.10738543	     13.11381639	     -7.56682349	     20.65739821	     -7.32204411	    -19.71045609	     37.69895861	     -2.21283527	      0.65797095	     12.27763900	     -3.99045331	     -7.56682349	    -17.43867479	      3.28798181	     -2.01972067	      8.88041222	    -12.88051980	      5.10178480	     42.65231796	     90.00000001	      0.00000000	      0.00000000	    -14.28274041	     -9.63362004	     -2.82937822	     56.67158720	     90.00000001	      0.00000000	      0.00000000
      3.60000000	      2.23281429	     -2.31702525	     -4.39049444	     -0.03099031	      0.92942575	     -0.08708289	     -0.10160145	     -5.65708881	    -19.88234543	     27.38559106	      4.27779161	      0.47796873	     22.06527094	     13.15911406	     -7.56662411	     20.51631262	     -7.37507114	    -20.02284513	     37.57346683	     -1.97825748	      0.65578071	     12.36110694	     -3.89776703	     -7.56662411	    -17.05548005	      3.12097829	     -2.03172073	      8.83365173	    -12.72175169	      5.18049997	     42.80753893	     90.00000001	      0.00000000	      0.00000000	    -14.39680855	     -9.62870223	     -2.86992978	     56.59362034	     90.00000001	      0.00000000	      0.00000000
      3.61000000	      2.58932907	     -2.15624238	     -4.66788314	     -0.02750836	      0.93091007	     -0.08842264	     -1.07750226	     -6.03285627	    -20.09598523	     26.59588387	      4.40983700	      0.46418574	     21.65418029	     14.15749017	     -7.56512350	     19.48813724	     -7.15664849	    -21.02331266	     36.96388900	     -2.16332101	      0.64514157	     12.77145270	     -2.73495839	     -7.56512350	    -17.31673832	      2.74975079	     -1.86992212	      8.60169992	    -12.76310206	      5.55790366	     43.49249081	     90.00000001	      0.00000000	      0.00000000	    -14.26539476	     -9.47302429	     -3.23667793	     56.30319221	     90.00000001	      0.00000000	      0.00000000
      3.62000000	      2.34385955	     -2.14192215	     -4.84173716	     -0.02456720	      0.93111424	     -0.08979742	     -1.13489480	     -6.17245362	    -20.34833650	     26.32480996	      4.43073359	      0.45945461	     21.61421797	     14.20034148	     -7.56494713	     19.38368594	     -7.21780180	    -21.30999171	     36.81825387	     -1.93584512	      0.64259975	     12.86749690	     -2.63195813	     -7.56494713	    -16.92266229	      2.62654726	     -1.89228770	      8.59657202	    -12.61140731	      5.63656381	     43.64850592	     90.00000001	      0.00000000	      0.00000000	    -14.37937295	     -9.46996799	     -3.26053319	     56.24011439	     90.00000001	      0.00000000	      0.00000000
      3.63000000	      2.60102771	     -1.97379416	     -5.08287844	     -0.02119713	      0.93240881	     -0.09120711	     -1.96935735	     -6.55936307	    -20.65657876	     25.60459173	      4.56588350	      0.44688443	     21.11922337	     15.16686903	     -7.56366830	     18.48797763	     -6.94573166	    -22.10072237	     36.19263520	     -2.03661723	      0.63168065	     13.31578155	     -1.54044819	     -7.56366830	    -17.07955331	      2.29173673	     -1.77126181	      8.36930683	    -12.65878482	      6.05522067	     44.35125757	     90.00000001	      0.00000000	      0.00000000	    -14.25758486	     -9.34260204	     -3.57375571	     55.94655491	     90.00000001	      0.00000000	      0.00000000
      3.64000000	      2.41677834	     -1.93873721	     -5.25114178	     -0.01829802	      0.93271485	     -0.09255945	     -2.09040591	     -6.72303700	    -20.96394131	     25.31806291	      4.58396042	      0.44188356	     21.06922808	     15.26891210	     -7.56337111	     18.32280922	     -6.95728599	    -22.40072837	     36.04000795	     -1.82682441	      0.62901680	     13.41329691	     -1.33353085	     -7.56337111	    -16.76767079	      2.14763431	     -1.74062866	      8.34197682	    -12.50454173	      6.19049909	     44.53631002	     90.00000001	      0.00000000	      0.00000000	    -14.33428275	     -9.32308927	     -3.61280050	     55.89984741	     90.00000001	      0.00000000	      0.00000000
